<svg width="243.7" height="243.80000000000004" xmlns="http://www.w3.org/2000/svg" xmlns:xlink="http://www.w3.org/1999/xlink">
 <g>
  <title>background</title>
  <rect fill="none" id="canvas_background" height="402" width="582" y="-1" x="-1"/>
 </g>
 <g>
  <title>Layer 1</title>
  <defs>
   <path id="SVGID_1_" d="m121.9,0c-67.1,0 -121.9,54.8 -121.9,121.9c0,67 54.8,121.9 121.9,121.9c67,0 121.9,-54.8 121.9,-121.9c-0.1,-67.1 -54.9,-121.9 -121.9,-121.9z"/>
  </defs>
  <clipPath id="SVGID_2_">
   <use id="svg_8" xlink:href="#SVGID_1_"/>
  </clipPath>
  <rect stroke="null" fill="#45525b" clip-path="url(#SVGID_2_)" id="svg_10" y="191.979399" x="-14.518948" width="4.018948" height="54.420608" class="st2"/>
  <path fill="#ffffff" clip-path="url(#SVGID_2_)" id="svg_11" d="m247.6,246.9l-258.6,0l0,-258.6l258.6,0l0,258.6zm-257.6,-1l256.6,0l0,-256.6l-256.6,0l0,256.6z" class="st3"/>
  <path opacity="0.1" fill="#ffffff" id="svg_15" d="m-10.6,-27.5l0,287l0,-287z" class="st3"/>
  <rect opacity="0.1" fill="#ffffff" id="svg_16" y="-27.5" x="-11.1" width="1" height="287" class="st3"/>
  <path opacity="0.1" fill="#ffffff" id="svg_18" d="m6.6,-27.5l0,287l0,-287z" class="st3"/>
  <rect opacity="0.1" fill="#ffffff" id="svg_19" y="-27.5" x="6.1" width="1" height="287" class="st3"/>
  <path opacity="0.1" fill="#ffffff" id="svg_21" d="m23.8,-27.5l0,287l0,-287z" class="st3"/>
  <rect opacity="0.1" fill="#ffffff" id="svg_22" y="-27.5" x="23.3" width="1" height="287" class="st3"/>
  <path opacity="0.1" fill="#ffffff" id="svg_24" d="m40.9,-27.5l0,287l0,-287z" class="st3"/>
  <path opacity="0.1" fill="#ffffff" id="svg_27" d="m58.1,-27.5l0,287l0,-287z" class="st3"/>
  <rect opacity="0.1" fill="#ffffff" id="svg_28" y="-27.5" x="57.6" width="1" height="287" class="st3"/>
  <path opacity="0.1" fill="#ffffff" id="svg_30" d="m75.3,-27.5l0,287l0,-287z" class="st3"/>
  <rect opacity="0.1" fill="#ffffff" id="svg_31" y="-27.5" x="74.8" width="1" height="287" class="st3"/>
  <path opacity="0.1" fill="#ffffff" id="svg_33" d="m109.7,-27.5l0,287l0,-287z" class="st3"/>
  <rect opacity="0.1" fill="#ffffff" id="svg_34" y="-27.5" x="109.2" width="1" height="287" class="st3"/>
  <path opacity="0.1" fill="#ffffff" id="svg_36" d="m144.1,-27.5l0,287l0,-287z" class="st3"/>
  <rect opacity="0.1" fill="#ffffff" id="svg_37" y="-27.5" x="143.6" width="1" height="287" class="st3"/>
  <path opacity="0.1" fill="#ffffff" id="svg_39" d="m92.5,-27.5l0,287l0,-287z" class="st3"/>
  <rect opacity="0.1" fill="#ffffff" id="svg_40" y="-27.5" x="92" width="1" height="287" class="st3"/>
  <path opacity="0.1" fill="#ffffff" id="svg_42" d="m126.9,-27.5l0,287l0,-287z" class="st3"/>
  <rect opacity="0.1" fill="#ffffff" id="svg_43" y="-27.5" x="126.4" width="1" height="287" class="st3"/>
  <path opacity="0.1" fill="#ffffff" id="svg_45" d="m161.3,-27.5l0,287l0,-287z" class="st3"/>
  <rect opacity="0.1" fill="#ffffff" id="svg_46" y="-27.5" x="160.8" width="1" height="287" class="st3"/>
  <path opacity="0.1" fill="#ffffff" id="svg_48" d="m178.5,-27.5l0,287l0,-287z" class="st3"/>
  <rect opacity="0.1" fill="#ffffff" id="svg_49" y="-27.5" x="178" width="1" height="287" class="st3"/>
  <path opacity="0.1" fill="#ffffff" id="svg_51" d="m195.7,-27.5l0,287l0,-287z" class="st3"/>
  <rect opacity="0.1" fill="#ffffff" id="svg_52" y="-27.5" x="195.2" width="1" height="287" class="st3"/>
  <path opacity="0.1" fill="#ffffff" id="svg_54" d="m212.9,-27.5l0,287l0,-287z" class="st3"/>
  <rect opacity="0.1" fill="#ffffff" id="svg_55" y="-27.5" x="212.4" width="1" height="287" class="st3"/>
  <path opacity="0.1" fill="#ffffff" id="svg_57" d="m230.1,-27.5l0,287l0,-287z" class="st3"/>
  <rect opacity="0.1" fill="#ffffff" id="svg_58" y="-27.5" x="229.6" width="1" height="287" class="st3"/>
  <path opacity="0.1" fill="#ffffff" id="svg_60" d="m247.3,-27.5l0,287l0,-287z" class="st3"/>
  <rect opacity="0.1" fill="#ffffff" id="svg_61" y="-27.5" x="246.8" width="1" height="287" class="st3"/>
  <path opacity="0.1" fill="#ffffff" id="svg_63" d="m261.4,-11.6l-287,0l287,0z" class="st3"/>
  <rect opacity="0.1" fill="#ffffff" id="svg_64" y="-12.1" x="-25.6" width="287" height="1" class="st3"/>
  <path opacity="0.1" fill="#ffffff" id="svg_66" d="m261.4,5.6l-287,0l287,0z" class="st3"/>
  <rect opacity="0.1" fill="#ffffff" id="svg_67" y="5.1" x="-25.6" width="287" height="1" class="st3"/>
  <path opacity="0.1" fill="#ffffff" id="svg_69" d="m261.4,22.8l-287,0l287,0z" class="st3"/>
  <path opacity="0.1" fill="#ffffff" id="svg_72" d="m261.4,40l-287,0l287,0z" class="st3"/>
  <rect opacity="0.1" fill="#ffffff" id="svg_73" y="39.5" x="-25.6" width="287" height="1" class="st3"/>
  <path opacity="0.1" fill="#ffffff" id="svg_78" d="m261.4,74.3l-287,0l287,0z" class="st3"/>
  <rect opacity="0.1" fill="#ffffff" id="svg_79" y="73.8" x="-25.6" width="287" height="1" class="st3"/>
  <path opacity="0.1" fill="#ffffff" id="svg_81" d="m261.4,108.7l-287,0l287,0z" class="st3"/>
  <rect opacity="0.1" fill="#ffffff" id="svg_82" y="108.2" x="-25.6" width="287" height="1" class="st3"/>
  <path opacity="0.1" fill="#ffffff" id="svg_84" d="m261.4,143.1l-287,0l287,0z" class="st3"/>
  <rect opacity="0.1" fill="#ffffff" id="svg_85" y="142.6" x="-25.6" width="287" height="1" class="st3"/>
  <path opacity="0.1" fill="#ffffff" id="svg_87" d="m261.4,91.5l-287,0l287,0z" class="st3"/>
  <rect opacity="0.1" fill="#ffffff" id="svg_88" y="91" x="-25.6" width="287" height="1" class="st3"/>
  <path opacity="0.1" fill="#ffffff" id="svg_90" d="m261.4,125.9l-287,0l287,0z" class="st3"/>
  <rect opacity="0.1" fill="#ffffff" id="svg_91" y="125.4" x="-25.6" width="287" height="1" class="st3"/>
  <path opacity="0.1" fill="#ffffff" id="svg_93" d="m261.4,160.3l-287,0l287,0z" class="st3"/>
  <rect opacity="0.1" fill="#ffffff" id="svg_94" y="159.8" x="-25.6" width="287" height="1" class="st3"/>
  <path opacity="0.1" fill="#ffffff" id="svg_96" d="m261.4,177.5l-287,0l287,0z" class="st3"/>
  <rect opacity="0.1" fill="#ffffff" id="svg_97" y="177" x="-25.6" width="287" height="1" class="st3"/>
  <path opacity="0.1" fill="#ffffff" id="svg_99" d="m261.4,194.7l-287,0l287,0z" class="st3"/>
  <rect opacity="0.1" fill="#ffffff" id="svg_100" y="194.2" x="-25.6" width="287" height="1" class="st3"/>
  <path opacity="0.1" fill="#ffffff" id="svg_102" d="m261.4,211.9l-287,0l287,0z" class="st3"/>
  <rect opacity="0.1" fill="#ffffff" id="svg_103" y="211.4" x="-25.6" width="287" height="1" class="st3"/>
  <path opacity="0.1" fill="#ffffff" id="svg_105" d="m261.4,229.1l-287,0l287,0z" class="st3"/>
  <rect opacity="0.1" fill="#ffffff" id="svg_106" y="228.6" x="-25.6" width="287" height="1" class="st3"/>
  <path opacity="0.1" fill="#ffffff" id="svg_108" d="m261.4,246.3l-287,0l287,0z" class="st3"/>
  <rect opacity="0.1" fill="#ffffff" id="svg_109" y="245.8" x="-25.6" width="287" height="1" class="st3"/>
  <ellipse stroke="null" ry="156.398215" rx="211.291197" id="svg_283" cy="122.982811" cx="118.579698" stroke-opacity="null" stroke-width="null" fill="#195073"/>
  <path fill="#00cad1" id="svg_113" d="m93.5,94.5l7.7,14.6l2.4,4.6l3.1,-4.1l30.4,-41.1l9.7,21.1l37.1,-43l-3.5,-3l-32.4,37.6l-10,-21.7l-33.7,45.5l-10.4,-19.6l-61.1,93.1c1.5,0 3.4,0 5.6,0l55.1,-84z" class="st6"/>
  <polygon fill="#00cad1" id="svg_116" points="172.5,46.1 185.6,41.1 183.4,54.9        " class="st6"/>
  <rect fill="#fcbb51" id="svg_123" y="97" x="137.9" width="42.8" height="7.4" class="st7"/>
  <polygon fill="#ffd55c" id="svg_126" points="179.5,133.8 179.5,126.4 176.5,126.4 176.5,118.9 176.2,118.9 176.2,118.9 178.9,118.9               178.9,111.5 176.5,111.5 176.5,104 133.7,104 133.7,111.5 136.4,111.5 136.4,111.5 136.1,111.5 136.1,118.9               133.7,118.9 133.7,126.4 136.7,126.4 136.7,133.8 134.8,133.8 134.8,141.3 135.9,141.3 135.9,148.7 135,148.7               135,154.7 134.9,154.7 134.9,156.2 133.7,156.2 133.7,163.6 135.8,163.6 135.8,171.1 136.2,171.1 136.2,171.1               130.8,171.1 130.8,178.5 173.6,178.5 173.6,173.7 173.6,171.1 178.6,171.1 178.6,163.6 176.5,163.6 176.5,163.6               176.5,162.2 176.5,162.2 176.5,156.2 177.9,156.2 177.9,148.7 178.7,148.7 178.7,141.3 177.6,141.3 177.6,133.8                           " class="st8"/>
  <rect fill="#ffb251" id="svg_129" y="171.1" x="130.8" width="42.8" height="7.5" class="st9"/>
  <rect fill="#fcbb51" id="svg_132" y="163.6" x="135.8" width="42.8" height="7.5" class="st7"/>
  <rect fill="#ffc958" id="svg_135" y="156.2" x="133.7" width="42.8" height="7.5" class="st10"/>
  <rect fill="#fcbb51" id="svg_138" y="148.7" x="135" width="42.8" height="7.5" class="st7"/>
  <rect fill="#ffd55c" id="svg_141" y="141.3" x="135.9" width="42.8" height="7.5" class="st8"/>
  <rect fill="#fcbb51" id="svg_144" y="133.8" x="134.8" width="42.8" height="7.5" class="st7"/>
  <rect fill="#ffc958" id="svg_147" y="126.4" x="136.7" width="42.8" height="7.5" class="st10"/>
  <rect fill="#ffb251" id="svg_150" y="118.9" x="133.7" width="42.8" height="7.5" class="st9"/>
  <rect fill="#fcbb51" id="svg_153" y="111.5" x="136.1" width="42.8" height="7.4" class="st7"/>
  <rect fill="#ffd55c" id="svg_156" y="104" x="133.7" width="42.8" height="7.5" class="st8"/>
  <polygon fill="#ffd55c" id="svg_160" points="126.5,155.9 126.5,148.5 122.1,148.5 122.1,148.5 122.1,141 125.4,141 125.4,133.6               122.1,133.6 122.1,126.1 79.3,126.1 79.3,133.6 82.6,133.6 82.6,141 79.3,141 79.3,148.5 83.7,148.5 83.7,151               83.7,155.9 83.7,155.9 81.7,155.9 81.7,163.4 82.3,163.4 82.3,170.8 82.3,170.8 80.7,170.8 80.7,178.3 123.5,178.3               123.5,171.1 125.2,170.8 125.2,163.4 124.5,163.4 124.5,155.9             " class="st8"/>
  <rect fill="#ffd55c" id="svg_163" y="170.8" x="80.7" width="42.8" height="7.5" class="st8"/>
  <rect fill="#ffb251" id="svg_166" y="163.4" x="82.3" width="42.8" height="7.4" class="st9"/>
  <rect fill="#fcbb51" id="svg_169" y="155.9" x="81.7" width="42.8" height="7.5" class="st7"/>
  <rect fill="#ffc958" id="svg_172" y="148.5" x="83.7" width="42.8" height="7.5" class="st10"/>
  <rect fill="#ffb251" id="svg_175" y="141" x="79.3" width="42.8" height="7.5" class="st9"/>
  <rect fill="#ffc958" id="svg_178" y="133.6" x="82.6" width="42.8" height="7.5" class="st10"/>
  <rect fill="#ffc958" id="svg_182" y="118.7" x="76" width="42.8" height="7.5" class="st10"/>
  <polygon opacity="0.3" fill="#ffa74d" id="svg_185" points="93,136.4 135.4,178.7 78.3,178.7            " class="st12"/>
  <path fill="#ffd55c" id="svg_191" d="m88.7,175.3c-11.9,5.3 -25.6,0.4 -31.2,-11.1c-2.8,-5.7 -3.1,-12.1 -1,-18.1c2.1,-6 6.4,-10.8 12.2,-13.6c0.2,-0.1 0.5,-0.2 0.7,-0.3c11.9,-5.3 25.6,-0.4 31.2,11.1c2.7,5.6 3.1,12 1.1,17.9c-2.1,6.1 -6.5,11 -12.3,13.8c-0.2,0.1 -0.4,0.2 -0.7,0.3z" class="st8"/>
  <path fill="#fcbb51" id="svg_194" d="m69.9,133.1c11.2,-5 24.5,-0.4 29.8,10.6c5.5,11.2 0.7,24.8 -10.7,30.3c-0.2,0.1 -0.4,0.2 -0.7,0.3c-11.3,5 -24.5,0.4 -29.8,-10.6c-5.5,-11.2 -0.7,-24.8 10.7,-30.3c0.2,-0.1 0.5,-0.2 0.7,-0.3l0,0zm-0.9,-1.9l0,0c-0.2,0.1 -0.5,0.2 -0.7,0.3c-6,2.9 -10.5,8 -12.7,14.2c-2.2,6.3 -1.8,13 1,18.9c5.9,12 20.1,17.1 32.5,11.6c0.2,-0.1 0.5,-0.2 0.7,-0.3c6.1,-2.9 10.6,-8 12.8,-14.4c2.1,-6.2 1.7,-12.8 -1.1,-18.7c-5.8,-12 -20.1,-17.1 -32.5,-11.6l0,0z" class="st7"/>
  <path fill="#fcbb51" id="svg_197" d="m86.8,153.6c-0.7,-0.9 -1.7,-1.5 -2.9,-1.7c-0.5,-0.1 -1.1,-0.1 -1.9,-0.1c-0.8,0 -1.8,0.1 -3,0.3l-1.3,0.3c-0.9,0.2 -1.8,0.2 -2.4,0c-0.6,-0.2 -1.1,-0.6 -1.4,-1.3c-0.3,-0.6 -0.3,-1.2 -0.1,-2c0.2,-0.7 0.7,-1.2 1.6,-1.7l1.2,-0.5c1,-0.4 1.9,-0.4 2.7,0.1c0.4,0.3 0.8,0.7 1.1,1.3l0.2,0.4l3.1,-1.4l-0.2,-0.5c-0.7,-1.5 -1.8,-2.5 -3.2,-3c-1.2,-0.4 -2.5,-0.4 -3.9,0l-1.4,-3l-3.1,1.4l1.4,3c-1.2,0.8 -2,1.7 -2.5,2.9c0,0.1 -0.1,0.1 -0.1,0.2c-0.5,1.6 -0.5,3.1 0.2,4.5c0.7,1.5 1.7,2.6 3.1,3c1.3,0.4 3,0.4 5.1,-0.1l1.3,-0.2c1.4,-0.2 2.1,-0.2 2.5,-0.1c0.9,0.2 1.5,0.7 1.9,1.6c0.3,0.6 0.4,1.2 0.3,1.7c-0.1,1.1 -0.7,1.9 -1.9,2.5l-1.2,0.5c-1.3,0.5 -2.4,0.4 -3.2,-0.2c-0.3,-0.2 -0.8,-0.8 -1.5,-2.1l-0.2,-0.4l-3.1,1.4l0.2,0.5c0.7,1.5 1.5,2.6 2.4,3.3c1.5,1.1 3.4,1.4 5.6,0.7l1.3,2.9l3.1,-1.4l-1.3,-2.9c1.1,-0.7 1.9,-1.5 2.4,-2.3c1.1,-1.7 1.2,-3.8 0.1,-6.2c-0.5,-0.6 -0.7,-1.1 -1,-1.4z" class="st7"/>
  <path fill="#fcbb51" id="svg_202" d="m69.2,138.6c0.6,0.8 0.5,2 -0.3,2.6c-0.8,0.7 -2,0.5 -2.6,-0.3c-0.6,-0.8 -0.5,-2 0.3,-2.6c0.7,-0.7 1.9,-0.5 2.6,0.3z" class="st7"/>
  <path fill="#fcbb51" id="svg_205" d="m91.9,166.6c0.6,0.8 0.5,2 -0.3,2.6c-0.8,0.6 -2,0.5 -2.6,-0.3c-0.6,-0.8 -0.5,-2 0.3,-2.6c0.8,-0.7 2,-0.5 2.6,0.3z" class="st7"/>
  <path fill="#fcbb51" id="svg_209" d="m73.4,136.5c0.4,0.9 0,2 -0.9,2.5c-0.9,0.4 -2,0 -2.5,-0.9c-0.4,-0.9 0,-2 0.9,-2.5c1,-0.4 2.1,0 2.5,0.9z" class="st7"/>
  <path fill="#fcbb51" id="svg_212" d="m88.2,169.4c0.4,0.9 0,2 -0.9,2.5c-0.9,0.4 -2,0 -2.5,-0.9c-0.4,-0.9 0,-2 0.9,-2.5c0.9,-0.4 2,0 2.5,0.9z" class="st7"/>
  <path fill="#fcbb51" id="svg_216" d="m65.6,141.7c0.8,0.6 1,1.8 0.4,2.6c-0.6,0.8 -1.8,1 -2.6,0.4c-0.8,-0.6 -1,-1.8 -0.4,-2.6c0.6,-0.9 1.7,-1 2.6,-0.4z" class="st7"/>
  <path fill="#fcbb51" id="svg_219" d="m94.8,162.8c0.8,0.6 1,1.8 0.4,2.6c-0.6,0.8 -1.8,1 -2.6,0.4c-0.8,-0.6 -1,-1.8 -0.4,-2.6c0.6,-0.8 1.8,-1 2.6,-0.4z" class="st7"/>
  <path fill="#fcbb51" id="svg_223" d="m62.9,145.6c1,0.4 1.4,1.4 1.1,2.4c-0.4,1 -1.4,1.4 -2.4,1.1c-1,-0.4 -1.4,-1.4 -1.1,-2.4c0.4,-1 1.4,-1.5 2.4,-1.1z" class="st7"/>
  <path fill="#fcbb51" id="svg_226" d="m96.6,158.4c1,0.4 1.4,1.4 1.1,2.4c-0.4,1 -1.4,1.4 -2.4,1.1c-1,-0.4 -1.4,-1.4 -1.1,-2.4c0.4,-1 1.5,-1.4 2.4,-1.1z" class="st7"/>
  <path fill="#fcbb51" id="svg_230" d="m61.3,150c1,0.1 1.8,1 1.7,2c-0.1,1 -1,1.8 -2,1.7c-1,-0.1 -1.8,-1 -1.7,-2c0.1,-1 1,-1.8 2,-1.7z" class="st7"/>
  <path fill="#fcbb51" id="svg_233" d="m97.2,153.7c1,0.1 1.8,1 1.7,2c-0.1,1 -1,1.8 -2,1.7c-1,-0.1 -1.8,-1 -1.7,-2c0.1,-1 1,-1.8 2,-1.7z" class="st7"/>
  <path fill="#fcbb51" id="svg_237" d="m61,154.8c1,-0.2 2,0.5 2.1,1.5c0.2,1 -0.5,2 -1.5,2.1c-1,0.2 -2,-0.5 -2.1,-1.5c-0.2,-1 0.5,-2 1.5,-2.1z" class="st7"/>
  <path fill="#fcbb51" id="svg_240" d="m96.6,149c1,-0.2 2,0.5 2.1,1.5c0.2,1 -0.5,2 -1.5,2.1c-1,0.2 -2,-0.5 -2.1,-1.5c-0.2,-0.9 0.5,-1.9 1.5,-2.1z" class="st7"/>
  <path fill="#fcbb51" id="svg_244" d="m61.9,159.4c0.9,-0.4 2,0 2.5,0.9c0.4,0.9 0,2 -0.9,2.5c-0.9,0.4 -2,0 -2.5,-0.9c-0.5,-1 -0.1,-2.1 0.9,-2.5z" class="st7"/>
  <path fill="#fcbb51" id="svg_247" d="m94.8,144.7c0.9,-0.4 2,0 2.5,0.9c0.4,0.9 0,2 -0.9,2.5c-0.9,0.4 -2,0 -2.5,-0.9c-0.5,-1 0,-2.1 0.9,-2.5z" class="st7"/>
  <path fill="#fcbb51" id="svg_251" d="m63.9,163.7c0.8,-0.6 2,-0.5 2.6,0.3c0.7,0.8 0.5,2 -0.3,2.6c-0.8,0.6 -2,0.5 -2.6,-0.3c-0.6,-0.8 -0.5,-2 0.3,-2.6z" class="st7"/>
  <path fill="#fcbb51" id="svg_254" d="m91.9,140.9c0.8,-0.7 2,-0.5 2.6,0.3c0.7,0.8 0.5,2 -0.3,2.6c-0.8,0.6 -2,0.5 -2.6,-0.3c-0.6,-0.8 -0.5,-1.9 0.3,-2.6z" class="st7"/>
  <path fill="#fcbb51" id="svg_258" d="m67,167.3c0.6,-0.8 1.8,-1 2.6,-0.4c0.8,0.6 1,1.8 0.4,2.6c-0.6,0.8 -1.8,1 -2.6,0.4c-0.8,-0.6 -1,-1.8 -0.4,-2.6z" class="st7"/>
  <path fill="#fcbb51" id="svg_261" d="m88.2,138c0.6,-0.8 1.8,-1 2.6,-0.4c0.8,0.6 1,1.8 0.4,2.6c-0.6,0.8 -1.8,1 -2.6,0.4c-0.8,-0.6 -1,-1.7 -0.4,-2.6z" class="st7"/>
  <path fill="#fcbb51" id="svg_265" d="m70.9,169.9c0.4,-1 1.4,-1.4 2.4,-1.1c1,0.4 1.4,1.4 1.1,2.4c-0.4,1 -1.5,1.4 -2.4,1.1c-1,-0.3 -1.4,-1.4 -1.1,-2.4z" class="st7"/>
  <path fill="#fcbb51" id="svg_268" d="m83.8,136.2c0.4,-1 1.4,-1.4 2.4,-1.1c1,0.4 1.4,1.4 1.1,2.4c-0.4,1 -1.4,1.4 -2.4,1.1c-1,-0.3 -1.5,-1.4 -1.1,-2.4z" class="st7"/>
  <path fill="#fcbb51" id="svg_272" d="m75.4,171.5c0.1,-1 1,-1.8 2,-1.7c1,0.1 1.8,1 1.7,2c-0.1,1 -1,1.8 -2,1.7c-1.1,-0.1 -1.8,-1 -1.7,-2z" class="st7"/>
  <path fill="#fcbb51" id="svg_275" d="m79.1,135.6c0.1,-1 1,-1.8 2,-1.7c1,0.1 1.8,1 1.7,2c-0.1,1 -1,1.8 -2,1.7c-1.1,-0.1 -1.8,-1 -1.7,-2z" class="st7"/>
  <path fill="#fcbb51" id="svg_279" d="m80.1,171.8c-0.2,-1 0.5,-2 1.6,-2.1c1,-0.2 2,0.5 2.1,1.5c0.2,1 -0.5,2 -1.5,2.1c-1.1,0.3 -2,-0.4 -2.2,-1.5z" class="st7"/>
  <path fill="#fcbb51" id="svg_282" d="m74.4,136.2c-0.2,-1 0.5,-2 1.5,-2.1c1,-0.2 2,0.5 2.1,1.5c0.2,1 -0.5,2 -1.5,2.1c-1,0.2 -1.9,-0.5 -2.1,-1.5z" class="st7"/>
 </g>
</svg>