<?xml version="1.0" ?><!DOCTYPE svg  PUBLIC '-//W3C//DTD SVG 1.1//EN'  'http://www.w3.org/Graphics/SVG/1.1/DTD/svg11.dtd'><svg enable-background="new 0 0 100 100" height="100px" id="Layer_1" version="1.1" viewBox="0 0 100 100" width="100px" xml:space="preserve" xmlns="http://www.w3.org/2000/svg" xmlns:xlink="http://www.w3.org/1999/xlink"><g><path d="M49.375,30.361c0.2,0,0.367-0.167,0.367-0.372c0-0.202-0.167-0.369-0.367-0.369c-0.207,0-0.374,0.167-0.374,0.369   C49.002,30.194,49.168,30.361,49.375,30.361z"/><g><path d="M20.74,38.864c-2.545-0.388-5.167-0.388-6.027-0.388c-0.863,0-3.487,0-6.037,0.388c-3.68,0.559-3.678,3.16-3.675,4.271    v26.372c0,2.323,1.636,3.668,4.863,3.993c1.261,0.142,4.353,0.193,4.483,0.195l0.219,0.005h0.152c0.882,0,3.528-0.058,4.847-0.2    c3.331-0.337,5.025-1.682,5.025-3.993V43.201C24.589,42.273,24.589,39.45,20.74,38.864z M23.354,69.507    c0,2.304-2.689,2.641-3.923,2.767c-1.248,0.135-3.88,0.193-4.714,0.193c-0.048,0-0.086,0-0.125,0l-0.227-0.005    c-0.92-0.015-3.35-0.072-4.376-0.188c-1.239-0.125-3.755-0.463-3.755-2.767V43.201c0-1.094-0.058-2.709,2.627-3.117    c2.458-0.374,5.013-0.374,5.852-0.374c0.834,0,3.389,0,5.842,0.374c2.685,0.408,2.8,2.023,2.8,3.117V69.507z"/><path d="M7.694,42.914H7.078v0.617v25.113v0.617h0.617h14.2h0.617v-0.617V43.531v-0.617h-0.617H7.694z M21.894,68.644h-14.2    V43.531h14.2V68.644z"/></g><path d="M78.593,31.484v0.359h0.009h0.01h0.009h0.009h0.01h0.01h0.009h0.01h0.009h0.01h0.009h0.009h0.01h0.01h0.009h0.01h0.009   h0.01h0.009h0.009h0.01h0.01h0.009h0.01h0.009h0.01h0.009h0.009h0.01h0.01h0.009h0.01h0.009h0.01h0.009h0.009h0.01h0.01h0.009h0.01   h0.009h0.009h0.01h0.009h0.01h0.009h0.01h0.01h0.009h0.009h0.01h0.009h0.01h0.009h0.01h0.01h0.009h0.009h0.01h0.009h0.01h0.009   h0.01h0.01h0.009h0.009h0.01h0.009h0.01h0.009h0.01h0.01h0.009h0.009h0.01h0.009v-0.359c0-0.004,0.005-0.006,0.005-0.011   c0-0.005-0.005-0.007-0.005-0.011v-0.361h-0.009h-0.01h-0.009h-0.009h-0.01h-0.01h-0.009h-0.01h-0.009h-0.01h-0.009H79.21H79.2   h-0.01h-0.009h-0.01h-0.009h-0.01h-0.009h-0.009h-0.01h-0.01h-0.009h-0.01h-0.009h-0.01h-0.009h-0.009h-0.01h-0.01h-0.009h-0.01   h-0.009h-0.01h-0.009h-0.009h-0.01h-0.009h-0.01h-0.01H78.93H78.92h-0.01h-0.009h-0.01h-0.009h-0.01h-0.01h-0.009h-0.009h-0.01   h-0.009h-0.01h-0.009h-0.01h-0.01h-0.009h-0.009h-0.01h-0.009h-0.01h-0.009h-0.01h-0.01h-0.009h-0.009h-0.01H78.67h-0.01H78.65   h-0.01h-0.01h-0.009h-0.009h-0.01h-0.009v0.361c0,0.004-0.005,0.006-0.005,0.011C78.588,31.478,78.593,31.48,78.593,31.484z"/><circle cx="78.959" cy="70.464" r="1.111"/><g><path d="M57.476,68.437h12.117v-22.22H57.476V68.437z M58.093,46.833h10.884v20.986H58.093V46.833z"/><circle cx="63.535" cy="70.456" r="1.362"/><circle cx="63.535" cy="43.692" r="0.252"/><path d="M62.682,45.08h1.706c0.186,0,0.378-0.193,0.378-0.378c0-0.184-0.193-0.379-0.378-0.379h-1.706    c-0.186,0-0.378,0.195-0.378,0.379C62.303,44.887,62.496,45.08,62.682,45.08z"/><path d="M68.74,40.943H58.329c-1.757,0-3.083,1.326-3.083,3.083v26.601c0,1.757,1.325,3.083,3.083,3.083H68.74    c1.757,0,3.082-1.326,3.082-3.083V44.026C71.822,42.269,70.497,40.943,68.74,40.943z M70.588,70.627    c0,1.065-0.776,1.849-1.848,1.849H58.329c-1.073,0-1.849-0.784-1.849-1.849V44.026c0-1.065,0.776-1.85,1.849-1.85H68.74    c1.072,0,1.848,0.785,1.848,1.85V70.627z"/></g><path d="M91.536,28.054H66.381c-1.943,0-3.463,1.512-3.463,3.441v8.213h1.234v-8.213c0-1.247,0.972-2.208,2.229-2.208h25.155   c1.259,0,2.23,0.96,2.23,2.208v38.775c0,1.246-0.971,2.206-2.23,2.206H72.64c-0.214,0.462-0.499,0.882-0.855,1.234h19.752   c1.943,0,3.464-1.511,3.464-3.439V31.496C95,29.566,93.479,28.054,91.536,28.054z"/><polygon points="66.62,33.694 66.62,39.709 67.236,39.709 67.236,34.311 90.681,34.311 90.681,67.627 73.057,67.627 73.057,68.244    91.298,68.244 91.298,33.694  "/><g><path d="M19.73,31.226v6.265c0.395,0.044,0.795,0.093,1.195,0.154c0.012,0.002,0.027,0.006,0.039,0.008v-5.194H60.45v-0.964    c0-0.093,0.022-0.178,0.027-0.27H19.73z"/><rect height="1.234" width="28.19" x="25.823" y="67.01"/></g><g><path d="M53.648,71.466H45.04c-0.374,0-0.639-0.2-0.747-0.378c-0.007-0.007,0-0.376,0-0.376H25.671    c-0.249,1.039-0.906,2.176-2.408,2.999h32.022c-0.627-0.62-1.048-1.437-1.2-2.357C53.962,71.415,53.82,71.466,53.648,71.466z"/><path d="M18.393,26.29c-1.983,0-3.598,1.615-3.598,3.601v7.352c0.477,0,1.366,0.003,2.468,0.055v-7.407    c0-0.624,0.506-1.133,1.13-1.133H61.18c0.579-1.074,1.468-1.933,2.572-2.468H18.393z"/></g></g></svg>